<?xml version="1.0" encoding="UTF-8" standalone="no"?>
<!-- Created with Inkscape (http://www.inkscape.org/) -->

<svg
   width="83.095863mm"
   height="83.095886mm"
   viewBox="0 0 83.095863 83.095886"
   version="1.1"
   id="svg1"
   inkscape:version="1.4.3 (0d15f75042, 2025-12-25)"
   sodipodi:docname="bluegreen2.svg"
   inkscape:export-filename="logo2.svg"
   inkscape:export-xdpi="96"
   inkscape:export-ydpi="96"
   xml:space="preserve"
   xmlns:inkscape="http://www.inkscape.org/namespaces/inkscape"
   xmlns:sodipodi="http://sodipodi.sourceforge.net/DTD/sodipodi-0.dtd"
   xmlns:xlink="http://www.w3.org/1999/xlink"
   xmlns="http://www.w3.org/2000/svg"
   xmlns:svg="http://www.w3.org/2000/svg"><sodipodi:namedview
     id="namedview1"
     pagecolor="#ffffff"
     bordercolor="#ffffff"
     borderopacity="1"
     inkscape:showpageshadow="2"
     inkscape:pageopacity="0.0"
     inkscape:pagecheckerboard="0"
     inkscape:deskcolor="#d1d1d1"
     inkscape:document-units="mm"
     inkscape:zoom="1.796733"
     inkscape:cx="85.711119"
     inkscape:cy="132.74092"
     inkscape:window-width="1916"
     inkscape:window-height="1062"
     inkscape:window-x="0"
     inkscape:window-y="0"
     inkscape:window-maximized="1"
     inkscape:current-layer="layer1"><inkscape:page
       x="0"
       y="0"
       width="83.095863"
       height="83.095886"
       id="page2"
       margin="0"
       bleed="0" /></sodipodi:namedview><defs
     id="defs1"><linearGradient
       id="linearGradient32"
       inkscape:collect="always"><stop
         style="stop-color:#29bea5;stop-opacity:1;"
         offset="0.26034912"
         id="stop31" /><stop
         style="stop-color:#277268;stop-opacity:1;"
         offset="0.86340088"
         id="stop32" /></linearGradient><linearGradient
       id="linearGradient30"
       inkscape:collect="always"><stop
         style="stop-color:#ccfff9;stop-opacity:1;"
         offset="0.16649593"
         id="stop29" /><stop
         style="stop-color:#33ccb3;stop-opacity:1;"
         offset="1"
         id="stop30" /></linearGradient><radialGradient
       inkscape:collect="always"
       xlink:href="#linearGradient30"
       id="radialGradient34-9-6-0"
       cx="85.359528"
       cy="84.279129"
       fx="85.359528"
       fy="84.279129"
       r="40.928719"
       gradientTransform="matrix(0.90364713,0,0,0.90211557,-32.960808,174.26327)"
       gradientUnits="userSpaceOnUse" /><radialGradient
       inkscape:collect="always"
       xlink:href="#linearGradient32"
       id="radialGradient16-9-1"
       cx="87.790047"
       cy="173.42043"
       fx="87.790047"
       fy="173.42043"
       r="36.989265"
       gradientTransform="matrix(1,0,0,0.99920251,-43.616028,76.978629)"
       gradientUnits="userSpaceOnUse" /></defs><g
     inkscape:label="Calque 1"
     inkscape:groupmode="layer"
     id="layer1"
     transform="translate(-2.7432557,-209.64743)"><path
       id="path1-8-7-0"
       style="display:inline;fill:url(#radialGradient34-9-6-0);fill-opacity:1;fill-rule:nonzero;stroke:url(#radialGradient16-9-1);stroke-width:1.8;stroke-linecap:round;stroke-dasharray:none;stroke-opacity:1;paint-order:stroke fill markers"
       d="m 50.001953,214.28906 c -0.648557,0.19976 -1.037079,0.90218 -1.547186,1.34327 -1.582792,1.65525 -2.995693,3.46315 -4.353205,5.30517 -1.64222,-2.28251 -3.409828,-4.48376 -5.410156,-6.46484 -0.607001,-0.36244 -1.465304,0.12184 -1.277344,0.86132 0.184748,0.85479 1.062437,1.24012 1.527082,1.92767 1.484204,1.66248 2.827344,3.37269 4.103778,5.20905 -1.65702,2.52013 -3.097416,5.18127 -4.306641,7.94336 -2.417053,-1.76886 -4.975645,-3.34463 -7.644531,-4.70312 0.248362,-2.98328 0.798842,-5.87493 1.490234,-8.78711 0.0037,-0.72548 -0.919844,-1.19984 -1.429687,-0.61133 -0.609209,0.61189 -0.467993,1.55293 -0.744767,2.32063 -0.454131,2.06721 -0.778847,4.1621 -0.995468,6.26726 -2.564191,-1.15514 -5.196457,-2.18186 -7.919921,-2.89844 -0.700955,-0.0104 -1.212086,0.82188 -0.6875,1.375 0.581659,0.65814 1.542667,0.54852 2.288568,0.91501 2.106606,0.68895 4.16373,1.52402 6.170416,2.4639 -0.172938,3.01031 -0.08408,6.03517 0.248047,9.03125 -2.978558,-0.32451 -5.983691,-0.41324 -8.976563,-0.25977 -1.277146,-2.70867 -2.253455,-5.49064 -3.107421,-8.34765 -0.364028,-0.63065 -1.396152,-0.58746 -1.542969,0.18554 -0.232015,0.80001 0.350311,1.50899 0.483101,2.27829 0.647662,2.05133 1.429574,4.0579 2.304008,6.0225 -2.800215,0.28156 -5.593732,0.70745 -8.3125,1.44726 -0.6321077,0.35504 -0.6082329,1.38292 0.15625,1.54688 0.812781,0.24523 1.595137,-0.32444 2.374122,-0.36417 2.166904,-0.45259 4.358538,-0.76063 6.588769,-0.94638 1.35666,2.69213 2.945052,5.26773 4.732422,7.69531 -2.74157,1.20644 -5.389064,2.6274 -7.900391,4.25977 -2.449952,-1.69282 -4.710824,-3.64225 -6.875,-5.6836 -0.634053,-0.35065 -1.4958578,0.21385 -1.234375,0.94922 0.2077293,0.80343 1.0600412,1.12676 1.5606197,1.7238 1.5865973,1.44985 3.2659183,2.79602 5.0038333,4.05941 -2.28376,1.64162 -4.488889,3.40685 -6.4746092,5.40429 -0.3757956,0.62576 0.1677737,1.51022 0.9160156,1.25977 0.8218636,-0.20225 1.2191766,-1.07507 1.8728776,-1.50375 1.652487,-1.47835 3.403906,-2.84466 5.226732,-4.10563 2.521947,1.65474 5.185661,3.09207 7.949218,4.30078 -1.765084,2.41668 -3.352264,4.96558 -4.707031,7.63477 -2.975188,-0.24319 -5.879115,-0.80276 -8.798828,-1.48828 -0.726026,0.01 -1.1921362,0.92509 -0.595703,1.43359 0.582145,0.59121 1.482916,0.44571 2.21507,0.71584 2.099807,0.46428 4.227733,0.7965 6.366961,1.01658 -1.16024,2.55993 -2.180596,5.19117 -2.904297,7.91016 -0.0051,0.70161 0.826268,1.20825 1.38086,0.68555 0.657017,-0.58253 0.549742,-1.54287 0.915351,-2.28846 0.693292,-2.1023 1.522413,-4.15916 2.467461,-6.16076 3.013645,0.17406 6.04123,0.0818 9.041016,-0.24609 -0.322042,2.97417 -0.414446,5.97453 -0.259766,8.96289 -2.691978,1.26988 -5.508608,2.25439 -8.359375,3.10156 -0.634738,0.36069 -0.592932,1.40049 0.183594,1.54297 0.803861,0.23068 1.517982,-0.35091 2.291887,-0.48333 2.050447,-0.64838 4.05761,-1.42739 6.022566,-2.29988 0.281155,2.79723 0.711264,5.58675 1.451172,8.30274 0.366449,0.62595 1.391437,0.59488 1.548828,-0.17578 0.237725,-0.81331 -0.317807,-1.56478 -0.370802,-2.37397 -0.456941,-2.16179 -0.759709,-4.3833 -0.941698,-6.55963 2.695207,-1.35293 5.273223,-2.93875 7.701172,-4.72656 1.212867,2.73722 2.633179,5.38382 4.267578,7.89258 -1.7003,2.44463 -3.647166,4.70724 -5.693359,6.86719 -0.345507,0.63618 0.214166,1.49396 0.953125,1.23046 0.824746,-0.22873 1.169979,-1.10202 1.789076,-1.62488 1.428624,-1.5646 2.753325,-3.2192 4.001939,-4.9298 1.644185,2.281 3.413159,4.48072 5.410157,6.46484 0.62532,0.37331 1.50607,-0.15769 1.265625,-0.9082 -0.199405,-0.82914 -1.06189,-1.20219 -1.513128,-1.88104 -1.484216,-1.66499 -2.830641,-3.37518 -4.106013,-5.21466 1.657491,-2.51902 3.095157,-5.18084 4.306641,-7.94141 2.418632,1.76555 4.973042,3.34827 7.644531,4.70312 -0.24614,2.98483 -0.803879,5.87651 -1.490234,8.79102 0.0194,0.71829 0.928742,1.17421 1.435546,0.5918 0.594152,-0.57936 0.444137,-1.4826 0.715912,-2.2131 0.468136,-2.09683 0.794457,-4.22352 1.02237,-6.35917 2.563637,1.15644 5.195764,2.18268 7.919922,2.89648 0.728143,0.002 1.20317,-0.90535 0.625,-1.42578 -0.587461,-0.60356 -1.510751,-0.50836 -2.235777,-0.8644 -2.105097,-0.68871 -4.160413,-1.52437 -6.166567,-2.46177 0.17239,-3.0102 0.08926,-6.03559 -0.248047,-9.03125 2.978561,0.32305 5.983915,0.41674 8.976562,0.25586 1.26975,2.69456 2.261015,5.51114 3.111329,8.36328 0.37363,0.61976 1.400451,0.56101 1.542968,-0.20312 0.221058,-0.80259 -0.354208,-1.51307 -0.489298,-2.28404 -0.646829,-2.04809 -1.428346,-4.05134 -2.301717,-6.01284 2.80073,-0.28222 5.595068,-0.7042 8.314453,-1.44726 0.613855,-0.3478 0.620468,-1.32137 -0.105469,-1.53711 -0.866357,-0.26126 -1.672379,0.31976 -2.534491,0.37885 -2.09006,0.43105 -4.319777,0.74418 -6.481134,0.92193 -1.357453,-2.69194 -2.946539,-5.26655 -4.732422,-7.69531 2.74307,-1.20421 5.388055,-2.63029 7.902344,-4.25782 2.461256,1.71091 4.698067,3.623 6.861328,5.67774 0.660704,0.46571 1.54536,-0.22682 1.285156,-0.98242 -0.241394,-0.70397 -1.001605,-1.00279 -1.456763,-1.55817 -1.629293,-1.49993 -3.35728,-2.8873 -5.148705,-4.18793 2.287478,-1.63702 4.489693,-3.40595 6.476562,-5.40234 0.37622,-0.62672 -0.164166,-1.50954 -0.914062,-1.26172 -0.825212,0.20355 -1.201453,1.05949 -1.879116,1.51114 -1.662668,1.4835 -3.409372,2.84316 -5.220494,4.09824 -2.521797,-1.65552 -5.187032,-3.08958 -7.951172,-4.29688 1.763327,-2.41861 3.352617,-4.96663 4.707032,-7.63672 2.977605,0.24503 5.886661,0.79453 8.80664,1.49219 0.72461,-0.008 1.197748,-0.92442 0.605469,-1.43359 -0.583031,-0.59994 -1.492163,-0.45021 -2.228818,-0.72134 -2.100732,-0.4632 -4.230166,-0.79145 -6.368838,-1.0189 1.1583,-2.55982 2.180287,-5.18995 2.904297,-7.9082 0.01295,-0.73084 -0.89269,-1.22468 -1.421876,-0.64258 -0.614939,0.5865 -0.515326,1.51802 -0.874335,2.24744 -0.692479,2.10237 -1.523924,4.15766 -2.469415,6.15881 -3.013682,-0.172 -6.041435,-0.0827 -9.041015,0.24805 0.325939,-2.97456 0.412546,-5.97592 0.259765,-8.96485 2.691583,-1.26917 5.507107,-2.25495 8.357422,-3.10156 0.607941,-0.35236 0.615052,-1.33472 -0.125,-1.53125 -0.854063,-0.2589 -1.620522,0.35215 -2.441847,0.502 -2.020015,0.63943 -3.995945,1.41046 -5.931199,2.27144 -0.28074,-2.79736 -0.708147,-5.58692 -1.449219,-8.30274 -0.367595,-0.62586 -1.386026,-0.58363 -1.548828,0.17578 -0.236326,0.8099 0.327476,1.59248 0.368286,2.36237 0.453041,2.13501 0.761592,4.3903 0.944214,6.56927 -2.695975,1.35486 -5.273865,2.94207 -7.705079,4.72852 -1.203144,-2.74147 -2.634106,-5.38318 -4.265624,-7.89258 1.701159,-2.45886 3.660834,-4.70171 5.68164,-6.86914 0.437648,-0.57046 -0.131822,-1.44722 -0.828125,-1.31836 z m -5.908203,9.77344 c 1.498271,2.36013 2.790712,4.84813 3.898438,7.41406 -1.361296,1.0985 -2.662415,2.27036 -3.91211,3.49414 -1.253634,-1.20656 -2.555657,-2.36333 -3.912109,-3.45312 1.099969,-2.58345 2.425532,-5.10134 3.925781,-7.45508 z m 13.140625,3.47852 c 0.117847,2.81627 -0.01298,5.58789 -0.337891,8.36914 -1.72779,0.27277 -3.440915,0.63688 -5.134765,1.07226 -0.485274,-1.66959 -1.027615,-3.32369 -1.660157,-4.94336 2.246238,-1.68755 4.656362,-3.21189 7.132813,-4.49804 z m -26.263672,0.0703 c 2.478908,1.2953 4.844655,2.80241 7.085938,4.47461 -0.621519,1.63362 -1.170595,3.29442 -1.638672,4.97851 -1.688669,-0.42121 -3.395071,-0.7704 -5.115235,-1.03515 -0.336771,-2.7973 -0.455247,-5.60352 -0.332031,-8.41797 z m 18.132813,6.75 c 0.333634,0.97691 0.685453,2.06218 0.976562,3.09765 -0.93948,0.30004 -1.879304,0.59793 -2.804687,0.93946 -0.645673,-0.73942 -1.298369,-1.47217 -1.970703,-2.1875 1.077053,-1.06046 2.2046,-2.06884 3.363281,-3.03906 0.145182,0.39648 0.290364,0.79296 0.435547,1.18945 z m -8.648438,-0.3418 c 0.820376,0.71546 1.62882,1.44499 2.408203,2.20508 -0.667872,0.72331 -1.316129,1.46371 -1.957031,2.21094 -0.93015,-0.31497 -1.86271,-0.62195 -2.802734,-0.90625 0.399726,-1.45687 0.87267,-2.89284 1.388672,-4.3125 0.320963,0.26758 0.641927,0.53515 0.96289,0.80273 z m 23.830078,3.04492 c 0.865546,-0.003 1.730802,0.0216 2.595703,0.0527 -1.317729,2.46606 -2.809701,4.84121 -4.488281,7.07812 -1.634877,-0.62503 -3.299898,-1.17027 -4.986328,-1.63867 0.425733,-1.68459 0.769348,-3.38913 1.039062,-5.10547 1.938593,-0.22859 3.887678,-0.3652 5.839844,-0.38672 z m -40.423828,0.12891 c 1.972023,0.0188 3.941274,0.15847 5.900391,0.38086 0.275994,1.72545 0.640088,3.4365 1.074219,5.1289 -1.673553,0.47786 -3.32679,1.02814 -4.949219,1.65821 -1.696181,-2.24569 -3.198396,-4.63652 -4.511719,-7.125 0.828493,-0.0287 1.657295,-0.0466 2.486328,-0.043 z m 21.208984,1.33398 c 0.791025,0.52156 0.18391,0.73114 -0.435507,0.93972 -0.661539,0.49749 -1.330475,-0.20596 -1.996133,-0.37722 0.489263,-0.5616 0.946201,-1.07455 1.451172,-1.625 0.326823,0.35417 0.653646,0.70834 0.980468,1.0625 z m 11.564454,-0.81054 c -0.251745,1.51086 -0.55,2.93974 -0.921875,4.41797 -0.962192,-0.21558 -1.929,-0.40599 -2.898438,-0.58594 -0.187414,-0.96396 -0.389573,-1.92464 -0.613281,-2.88086 1.454325,-0.37889 2.914713,-0.68887 4.433594,-0.95117 z m -25.0625,0.11914 c 1.485733,0.2466 2.961171,0.55313 4.421875,0.91992 -0.215617,0.96088 -0.405997,1.92639 -0.585938,2.89453 -0.964662,0.18733 -1.925717,0.39047 -2.882812,0.61328 -0.378625,-1.45249 -0.689707,-2.91091 -0.953125,-4.42773 z m 19.265625,2.72265 c 0.425507,0.84686 -0.207351,0.72398 -0.846675,0.59417 -0.82212,0.0998 -1.051738,-0.84013 -1.541997,-1.32268 0.687968,-0.23771 1.380618,-0.46101 2.074219,-0.68164 0.104817,0.47005 0.209635,0.9401 0.314453,1.41015 z M 39.068359,239.6543 c 0.907265,0.042 0.539685,0.53598 0.08616,1.02652 -0.325029,0.76131 -1.255743,0.48659 -1.91819,0.67074 0.134166,-0.71312 0.28483,-1.42279 0.44336,-2.13086 0.46289,0.14453 0.925781,0.28907 1.38867,0.4336 z m 5.507813,2.94922 c 3.396903,0.15569 6.501389,2.7493 7.190892,6.08953 0.887923,3.56822 -1.168357,7.55411 -4.577577,8.91821 -3.113603,1.36254 -7.033384,0.38643 -9.12012,-2.30373 -2.460728,-2.91259 -2.244365,-7.62115 0.45329,-10.30904 1.566537,-1.64227 3.835549,-2.51197 6.053515,-2.39497 z m 9.880859,1.0371 c 0.881138,-0.0409 0.797569,0.48044 0.494148,1.12936 -0.212208,0.39458 -0.19661,1.54092 -0.766495,0.81646 -0.55175,-0.34686 -1.068514,-0.71421 -0.972012,-1.44049 -0.377745,-0.94168 0.30282,-0.74782 0.979127,-0.55853 0.08841,0.0177 0.176822,0.0355 0.265232,0.0532 z m -19.361328,0.0449 c -0.116457,0.62645 0.08637,1.46108 -0.653405,1.74986 -0.567517,0.62725 -0.937383,0.60662 -1.043216,-0.27947 -0.02132,-0.44346 -0.760025,-1.30269 -0.0012,-1.30295 0.574781,-0.135 1.152839,-0.25494 1.730987,-0.37447 -0.01107,0.069 -0.02213,0.13802 -0.0332,0.20703 z m 21.847656,0.55468 c 1.459512,0.39803 2.926806,0.87687 4.31836,1.38868 -0.96178,1.15428 -1.939696,2.26745 -3.013672,3.36718 -0.726233,-0.66674 -1.466852,-1.31712 -2.216797,-1.95703 0.32255,-0.92655 0.626896,-1.86245 0.912109,-2.79883 z M 31.3125,244.38281 c 0.297154,0.93822 0.606106,1.87217 0.943359,2.79688 -0.743148,0.64328 -1.475218,1.29753 -2.191406,1.9707 -1.058332,-1.0788 -2.075347,-2.19857 -3.042969,-3.35937 1.4107,-0.52311 2.846065,-1.00312 4.291016,-1.40821 z m 31.648438,1.91992 c 2.597239,1.09308 5.091216,2.42181 7.476562,3.91993 -2.37428,1.48391 -4.861764,2.78821 -7.435547,3.89062 -1.104235,-1.3556 -2.273051,-2.65848 -3.496094,-3.9082 1.208355,-1.24915 2.362027,-2.55298 3.455079,-3.90235 z m -37.634766,0.16797 c 1.098729,1.35943 2.274485,2.65485 3.49414,3.90625 -1.208944,1.25021 -2.362574,2.5531 -3.457031,3.9043 -2.595059,-1.0987 -5.092365,-2.42475 -7.478515,-3.92187 2.332898,-1.45214 4.876506,-2.80176 7.441406,-3.88868 z m 31.082031,3.20313 c 0.78525,0.40299 0.447732,0.81369 -0.13703,1.22348 -0.380875,0.23549 -0.939865,1.23588 -1.071107,0.32341 -0.304356,-0.57649 -0.568853,-1.15322 -0.121859,-1.73416 0.143403,-1.00474 0.636249,-0.49234 1.126298,0.008 0.0679,0.0598 0.135799,0.11957 0.203698,0.17935 z M 33,249.09766 c 0.222305,0.59805 0.804083,1.22244 0.313239,1.84057 -0.177999,0.82662 -0.507776,0.9976 -1.042967,0.28124 -0.242103,-0.37164 -1.311012,-0.74817 -0.654577,-1.12803 0.428901,-0.40507 0.870967,-0.79546 1.312039,-1.18714 0.02409,0.0644 0.04818,0.1289 0.07227,0.19336 z m 25.261719,2.33593 c 1.062312,1.07458 2.073226,2.19892 3.042969,3.35743 -1.411566,0.52471 -2.843425,0.99497 -4.291016,1.41015 -0.296345,-0.93907 -0.615483,-1.87035 -0.94336,-2.79883 0.741635,-0.64262 1.474087,-1.30546 2.191407,-1.96875 z m -28.185547,0.15625 c 0.730498,0.66116 1.461343,1.32054 2.216797,1.95313 -0.317893,0.92803 -0.624707,1.85966 -0.908203,2.79883 -1.459879,-0.40031 -2.899445,-0.87234 -4.322266,-1.38868 0.94198,-1.13149 1.962639,-2.28417 3.013672,-3.36328 z m 25,4.28125 c 0.476474,0.74216 -0.01887,0.92733 -0.730843,0.98986 -0.448034,0.0146 -1.434707,0.60161 -1.091489,-0.254 0.0258,-0.65132 0.08621,-1.28288 0.763682,-1.56207 0.627159,-0.79769 0.798468,-0.10983 0.972291,0.56983 0.02879,0.0855 0.05757,0.17092 0.08636,0.25638 z m -21.173828,-1.03906 c 0.48583,0.41021 1.304977,0.65712 1.18864,1.43875 0.261421,0.80485 0.06005,1.11518 -0.760951,0.76338 -0.396235,-0.20314 -1.510975,0.007 -1.133752,-0.65069 0.169322,-0.56571 0.35625,-1.12573 0.542,-1.6862 0.05469,0.0449 0.109375,0.0898 0.164063,0.13476 z m 28.535156,1.39063 c 1.69946,2.24504 3.198927,4.63938 4.513672,7.1289 -2.823572,0.0959 -5.595018,-0.0104 -8.386719,-0.34375 -0.275838,-1.72553 -0.641684,-3.43621 -1.074219,-5.1289 1.67275,-0.47723 3.325627,-1.02736 4.947266,-1.65625 z m -36.5,0.16601 c 1.632022,0.62652 3.295974,1.16818 4.980469,1.63672 -0.422041,1.68599 -0.768738,3.39031 -1.03711,5.10742 -2.809963,0.34353 -5.597823,0.44565 -8.439453,0.33789 1.322432,-2.46477 2.811294,-4.85513 4.496094,-7.08203 z m 29.863281,1.93164 c 0.380368,1.4617 0.697529,2.93954 0.955078,4.42774 -1.486004,-0.25155 -2.962968,-0.55687 -4.425781,-0.91993 0.215853,-0.96148 0.406146,-1.92766 0.585938,-2.89648 0.964755,-0.1857 1.930745,-0.39358 2.884765,-0.61133 z m -23.185547,0.12891 c 0.962886,0.20821 1.92618,0.41279 2.896485,0.58398 0.187414,0.96396 0.389573,1.92465 0.613281,2.88086 -1.491157,0.38216 -2.925202,0.68796 -4.4375,0.95313 0.253883,-1.48288 0.556481,-2.96239 0.927734,-4.41797 z m 18.205078,2.12305 c 0.04086,0.88138 -0.480341,0.79725 -1.129023,0.49308 -0.393843,-0.2126 -1.542791,-0.19478 -0.816501,-0.76521 0.346767,-0.55138 0.714669,-1.06661 1.440211,-0.97016 0.942101,-0.37696 0.750436,0.30079 0.558656,0.97864 -0.01778,0.0879 -0.03556,0.17576 -0.05334,0.26365 z m -13.271484,-1.22461 c 0.627286,0.11215 1.461948,-0.0861 1.752298,0.65108 0.627519,0.56752 0.609109,0.93747 -0.27871,1.04148 -0.444813,0.0211 -1.304294,0.76233 -1.306639,0.003 -0.136169,-0.57388 -0.255437,-1.15143 -0.37398,-1.72915 0.06901,0.0111 0.138021,0.0221 0.207031,0.0332 z m 8.136719,2.14257 c -0.474001,0.54912 -0.960143,1.08737 -1.449219,1.62305 -0.494425,-0.52833 -0.985107,-1.06003 -1.46289,-1.60351 0.66932,-0.18364 1.335521,-0.89384 2.00888,-0.39608 0.301076,0.12551 0.602153,0.25103 0.903229,0.37654 z m 1.736328,0.65625 c 0.925734,0.3254 1.860384,0.6219 2.798828,0.90821 -0.400946,1.46154 -0.881541,2.92649 -1.388672,4.31445 -1.168804,-0.96881 -2.30849,-1.97663 -3.36914,-3.01172 0.668832,-0.72281 1.316037,-1.46661 1.958984,-2.21094 z m -6.373047,0.0371 c 0.639495,0.74548 1.301622,1.46992 1.972656,2.1875 -1.076983,1.06129 -2.205882,2.06887 -3.365234,3.03907 -0.522593,-1.41111 -1.001517,-2.83923 -1.412109,-4.28711 0.941133,-0.29304 1.876152,-0.61675 2.804687,-0.93946 z m 10.857422,1.33399 c 1.685735,0.42425 3.397473,0.76633 5.117188,1.03515 0.341582,2.80629 0.446656,5.58988 0.33789,8.42774 -2.474281,-1.3097 -4.851068,-2.80575 -7.091797,-4.48438 0.62138,-1.63286 1.165534,-3.29858 1.636719,-4.97851 z m -14.943359,1.42969 c 0.382795,1.21152 0.80243,2.41084 1.261718,3.5957 -2.248884,1.69923 -4.650646,3.19117 -7.140625,4.50976 -0.09274,-2.82159 0.0094,-5.59116 0.34375,-8.38085 1.727948,-0.27533 3.442132,-0.63556 5.136719,-1.07032 0.132813,0.44857 0.265625,0.89714 0.398438,1.34571 z m 7.285156,0.66601 c 1.25192,1.20895 2.55457,2.36399 3.912109,3.45313 -1.062826,2.54826 -2.403103,4.97581 -3.9375,7.26953 -1.50376,-2.28954 -2.827618,-4.70081 -3.888672,-7.22852 1.357919,-1.10244 2.662733,-2.27896 3.914063,-3.49414 z" /><circle
       style="display:inline;fill:#99ffee;fill-opacity:1;stroke:#33988a;stroke-width:1.269;stroke-dasharray:none;stroke-opacity:1;paint-order:stroke fill markers"
       id="path7-1-7-8-6"
       cx="44.166653"
       cy="250.41943"
       r="3.721643"
       inkscape:export-filename="bluegreen.svg"
       inkscape:export-xdpi="156.45396"
       inkscape:export-ydpi="156.45396" /><rect
       style="fill:none;fill-opacity:1;stroke:none;stroke-width:1.32361;stroke-dasharray:none;stroke-opacity:1;paint-order:stroke fill markers"
       id="rect11-3"
       width="83.095871"
       height="83.095863"
       x="2.7432556"
       y="209.64743"
       inkscape:export-filename="logo3.png"
       inkscape:export-xdpi="96"
       inkscape:export-ydpi="96" /></g></svg>
