<?xml version="1.0" encoding="UTF-8" standalone="no"?>
<!-- Created with Inkscape (http://www.inkscape.org/) -->

<svg
   width="81.174034mm"
   height="81.174042mm"
   viewBox="0 0 81.174034 81.174042"
   version="1.1"
   id="svg1"
   inkscape:version="1.4.3 (0d15f75042, 2025-12-25)"
   sodipodi:docname="darkersolmon.svg"
   inkscape:export-filename="logo2.svg"
   inkscape:export-xdpi="96"
   inkscape:export-ydpi="96"
   xml:space="preserve"
   xmlns:inkscape="http://www.inkscape.org/namespaces/inkscape"
   xmlns:sodipodi="http://sodipodi.sourceforge.net/DTD/sodipodi-0.dtd"
   xmlns:xlink="http://www.w3.org/1999/xlink"
   xmlns="http://www.w3.org/2000/svg"
   xmlns:svg="http://www.w3.org/2000/svg"><sodipodi:namedview
     id="namedview1"
     pagecolor="#ffffff"
     bordercolor="#000000"
     borderopacity="0.25"
     inkscape:showpageshadow="2"
     inkscape:pageopacity="0.0"
     inkscape:pagecheckerboard="0"
     inkscape:deskcolor="#d1d1d1"
     inkscape:document-units="mm"
     inkscape:zoom="1.0355605"
     inkscape:cx="354.39746"
     inkscape:cy="264.10819"
     inkscape:window-width="1920"
     inkscape:window-height="1080"
     inkscape:window-x="0"
     inkscape:window-y="0"
     inkscape:window-maximized="1"
     inkscape:current-layer="layer1"><inkscape:page
       x="0"
       y="0"
       width="81.174034"
       height="81.174042"
       id="page2"
       margin="0"
       bleed="0" /></sodipodi:namedview><defs
     id="defs1"><linearGradient
       id="linearGradient1"
       inkscape:collect="always"><stop
         style="stop-color:#d67676;stop-opacity:1;"
         offset="0.13659914"
         id="stop2" /><stop
         style="stop-color:#872b2b;stop-opacity:1;"
         offset="1"
         id="stop1" /></linearGradient><linearGradient
       id="linearGradient33"
       inkscape:collect="always"><stop
         style="stop-color:#ffa8a8;stop-opacity:1;"
         offset="0.07438355"
         id="stop33" /><stop
         style="stop-color:#ffebeb;stop-opacity:1;"
         offset="0.99854827"
         id="stop34" /></linearGradient><radialGradient
       inkscape:collect="always"
       xlink:href="#linearGradient33"
       id="radialGradient34"
       cx="85.359528"
       cy="84.279129"
       fx="85.359528"
       fy="84.279129"
       r="40.928719"
       gradientTransform="matrix(1,0,0,0.99962759,0,0.03138637)"
       gradientUnits="userSpaceOnUse" /><radialGradient
       inkscape:collect="always"
       xlink:href="#linearGradient1"
       id="radialGradient2"
       cx="85.359467"
       cy="84.279068"
       fx="85.359467"
       fy="84.279068"
       r="40.934189"
       gradientTransform="matrix(1,0,0,0.99962797,0,0.03135421)"
       gradientUnits="userSpaceOnUse" /></defs><g
     inkscape:label="Calque 1"
     inkscape:groupmode="layer"
     id="layer1"
     transform="translate(-40.486931,-43.017074)"><rect
       style="fill:none;fill-opacity:1;stroke:none;stroke-width:1.293;stroke-dasharray:none;stroke-opacity:1;paint-order:stroke fill markers"
       id="rect11"
       width="81.174042"
       height="81.174034"
       x="40.486931"
       y="43.017075"
       inkscape:export-filename="logo3.png"
       inkscape:export-xdpi="96"
       inkscape:export-ydpi="96" /><path
       id="path1"
       style="display:inline;fill:url(#radialGradient34);fill-opacity:1;fill-rule:nonzero;stroke:url(#radialGradient2);stroke-width:1.99325;stroke-linecap:round;stroke-dasharray:none;stroke-opacity:1;paint-order:stroke fill markers"
       d="m 91.969518,44.356475 5.71e-4,5.72e-4 a 0.96625012,0.96625012 0 0 0 -0.713687,0.288602 c -1.744389,1.776271 -3.855767,4.139128 -5.977135,7.108539 -2.092404,-2.964725 -4.154906,-5.312132 -5.83474,-7.057575 a 0.96625,0.96625 0 0 0 -1.392492,1.339937 c 1.737223,1.805074 3.894635,4.271861 6.057196,7.418327 -1.198918,1.811924 -2.379726,3.82058 -3.477512,6.029145 -0.445049,0.895364 -0.874715,1.820522 -1.285553,2.775502 -0.874519,-0.649044 -1.764256,-1.270676 -2.666608,-1.864459 -1.982208,-1.304371 -3.929467,-2.411249 -5.793566,-3.352134 0.321315,-3.817201 0.990121,-7.066416 1.633819,-9.558791 a 0.96627496,0.96627496 0 0 0 -1.871143,-0.483294 c -0.622505,2.41032 -1.269339,5.511704 -1.621809,9.14364 -3.29427,-1.521216 -6.254579,-2.522436 -8.581981,-3.19409 a 0.966389,0.966389 0 0 0 -0.535838,1.857016 c 2.407017,0.694628 5.509343,1.752013 8.955409,3.395653 -0.132332,2.168631 -0.151297,4.498663 0.0023,6.960229 0.06226,0.997934 0.152802,2.013897 0.274496,3.046353 -1.081878,-0.12483 -2.162981,-0.218675 -3.241332,-0.281731 -2.368828,-0.138514 -4.608883,-0.12297 -6.693682,-0.0057 -1.630334,-3.46645 -2.675555,-6.61523 -3.364283,-9.095539 a 0.96625045,0.96625045 0 0 0 -1.861993,0.517078 c 0.666054,2.39865 1.656269,5.408622 3.16699,8.730206 -3.613529,0.329723 -6.677192,0.94229 -9.028608,1.524322 a 0.9662649,0.9662649 0 0 0 0.464355,1.875912 c 2.431852,-0.601942 5.646731,-1.236748 9.452931,-1.536347 0.969713,1.944256 2.118307,3.971289 3.482087,6.026282 0.552885,0.833106 1.139155,1.667929 1.760773,2.501216 -0.999349,0.432833 -1.981986,0.892017 -2.947393,1.376585 -2.120722,1.064457 -4.053549,2.197912 -5.800429,3.341826 -3.145135,-2.186867 -5.624514,-4.390986 -7.461125,-6.194633 A 0.96625012,0.96625012 0 0 0 45.715932,78.368 c 1.776144,1.744265 4.138598,3.855247 7.107712,5.976463 -2.964547,2.092313 -5.311447,4.155263 -7.056816,5.835026 a 0.96626405,0.96626405 0 0 0 1.33988,1.392618 c 1.805074,-1.737223 4.271768,-3.894642 7.418235,-6.057203 1.811924,1.198918 3.820038,2.379752 6.028602,3.477538 0.895365,0.445049 1.820854,0.8747 2.775834,1.285538 -0.649044,0.874519 -1.270497,1.76378 -1.864281,2.666131 -1.304394,1.982245 -2.411377,3.93024 -3.352273,5.79437 -0.663524,-0.05588 -1.329403,-0.124146 -1.996381,-0.204427 -3.319941,-0.399604 -5.986326,-1.022804 -7.562346,-1.429838 a 0.96625,0.96625 0 0 0 -0.483226,1.870758 c 1.626262,0.42001 4.382108,1.064736 7.81511,1.477946 0.443606,0.0534 0.886191,0.10136 1.328443,0.1443 -1.521196,3.29424 -2.52222,6.25451 -3.193867,8.58189 a 0.96632702,0.96632702 0 0 0 1.856846,0.53598 c 0.694619,-2.40698 1.752132,-5.50923 3.395735,-8.95525 2.345736,0.14316 4.668276,0.14023 6.959599,-0.003 0.997934,-0.0623 2.014442,-0.1526 3.046898,-0.27429 -0.124829,1.08188 -0.218302,2.16327 -0.281358,3.24162 -0.138514,2.36883 -0.123499,4.60916 -0.0063,6.69396 -3.46645,1.63034 -6.614635,2.67486 -9.094944,3.36359 a 0.96629847,0.96629847 0 0 0 0.516966,1.86217 c 2.398651,-0.66606 5.407938,-1.65646 8.729522,-3.16718 0.329723,3.61353 0.943132,6.6777 1.525165,9.02911 a 0.96625024,0.96625024 0 0 0 1.875717,-0.46439 c -0.601942,-2.43185 -1.237002,-5.64666 -1.536601,-9.45286 1.944255,-0.96971 3.971322,-2.11834 6.026315,-3.48212 0.833106,-0.55287 1.668051,-1.13919 2.501338,-1.76081 0.432834,0.99935 0.891911,1.98188 1.37648,2.94729 1.064457,2.12072 2.197494,4.05321 3.341408,5.80009 -2.186867,3.14514 -4.390797,5.62466 -6.194444,7.46128 a 0.96625,0.96625 0 0 0 1.378767,1.35368 c 1.744265,-1.77615 3.855347,-4.13828 5.976563,-7.1074 2.092313,2.96455 4.155549,5.31163 5.835312,7.05701 a 0.96643689,0.96643689 0 0 0 1.392492,-1.34051 c -1.737223,-1.80507 -3.894635,-4.27129 -6.057196,-7.41776 1.198918,-1.81192 2.379726,-3.82058 3.477512,-6.02914 0.445049,-0.89537 0.874715,-1.82053 1.285553,-2.77551 0.874519,0.64905 1.764256,1.27068 2.666607,1.86446 1.982245,1.3044 3.929437,2.41124 5.793567,3.35214 -0.05588,0.66352 -0.123875,1.32918 -0.204156,1.99616 -0.399604,3.31995 -1.022629,5.98661 -1.429663,7.56263 a 0.96625127,0.96625127 0 0 0 1.870572,0.48329 c 0.42001,-1.62626 1.06448,-4.38215 1.4777,-7.81515 0.0534,-0.44361 0.10174,-0.88681 0.14468,-1.32906 3.29423,1.52119 6.2546,2.52244 8.58198,3.19409 a 0.9662505,0.9662505 0 0 0 0.53584,-1.85644 c -2.40699,-0.69462 -5.50883,-1.75206 -8.95484,-3.39566 0.14315,-2.34573 0.14022,-4.6689 -0.003,-6.96023 -0.0623,-0.99793 -0.15281,-2.01389 -0.2745,-3.04635 1.08188,0.12483 2.16298,0.2181 3.24134,0.28116 2.36882,0.13851 4.60888,0.12325 6.69368,0.006 1.63033,3.46645 2.67555,6.61466 3.36428,9.09496 a 0.9662519,0.9662519 0 0 0 1.86199,-0.51708 c -0.66605,-2.39865 -1.65626,-5.40804 -3.16699,-8.72963 3.61354,-0.32972 6.6772,-0.942866 9.02861,-1.524898 a 0.96626486,0.96626486 0 0 0 -0.46435,-1.875912 c -2.43185,0.601942 -5.64673,1.237321 -9.45293,1.53692 -0.96972,-1.944256 -2.11831,-3.97129 -3.48209,-6.026282 -0.55289,-0.833106 -1.13916,-1.66793 -1.76077,-2.501216 0.99934,-0.432834 1.98198,-0.89259 2.94739,-1.377158 2.12072,-1.064457 4.05355,-2.197339 5.80043,-3.341253 3.14513,2.186868 5.62452,4.390985 7.46112,6.194632 a 0.96625222,0.96625222 0 1 0 1.35361,-1.378875 c -1.77615,-1.744265 -4.1386,-3.855248 -7.10771,-5.976464 2.96454,-2.092313 5.31145,-4.155262 7.05681,-5.835025 a 0.96626421,0.96626421 0 0 0 -1.33988,-1.392619 c -1.80507,1.737223 -4.27177,3.894644 -7.41823,6.057204 -1.81193,-1.198918 -3.82004,-2.379752 -6.02861,-3.477538 -0.89536,-0.445048 -1.82085,-0.8747 -2.77583,-1.285538 0.64904,-0.874519 1.2705,-1.764352 1.86428,-2.666704 1.30437,-1.982208 2.41139,-3.929699 3.35227,-5.793797 3.8172,0.321314 7.06635,0.990567 9.55873,1.634265 a 0.96635798,0.96635798 0 0 0 0.48323,-1.871331 c -2.41032,-0.622506 -5.51162,-1.269197 -9.14356,-1.621667 1.52122,-3.294269 2.52222,-6.254495 3.19387,-8.581897 a 0.96632825,0.96632825 0 0 0 -1.85685,-0.535975 c -0.69463,2.407016 -1.75209,5.509182 -3.39573,8.955247 -2.16863,-0.132331 -4.49861,-0.151291 -6.96017,0.0023 -0.99794,0.06226 -2.01387,0.152593 -3.04633,0.274287 0.12483,-1.081877 0.21831,-2.162695 0.28136,-3.241045 0.13851,-2.368829 0.12323,-4.609161 0.006,-6.69396 3.46645,-1.630334 6.61464,-2.67543 9.09494,-3.364158 a 0.96629806,0.96629806 0 0 0 -0.51696,-1.862169 c -2.39865,0.666054 -5.40795,1.657029 -8.72953,3.167749 -0.32973,-3.613529 -0.94313,-6.6777 -1.52516,-9.029116 a 0.96625049,0.96625049 0 0 0 -1.875714,0.463825 c 0.601942,2.431852 1.237002,5.647229 1.536601,9.453428 -1.944256,0.969714 -3.971321,2.118338 -6.026315,3.482119 -0.833106,0.552884 -1.668052,1.139197 -2.501338,1.760815 -0.432834,-0.999349 -0.891911,-1.982455 -1.37648,-2.947862 -1.064457,-2.120722 -2.197494,-4.053215 -3.341408,-5.800095 2.186867,-3.145135 4.390797,-5.624092 6.194444,-7.460702 a 0.96625012,0.96625012 0 0 0 -0.665079,-1.642854 z m -6.698829,10.856354 c 0.953746,1.503471 1.89417,3.141187 2.784411,4.914821 0.541696,1.079223 1.050794,2.180927 1.525165,3.30346 -1.510247,1.213926 -2.953943,2.505776 -4.325588,3.869785 -1.386499,-1.356881 -2.831908,-2.632233 -4.32616,-3.823975 0.454149,-1.083082 0.933849,-2.127271 1.433666,-3.132819 0.922214,-1.855343 1.905536,-3.565211 2.908506,-5.131272 z M 99.81322,59.06887 c 0.07423,1.778918 0.06952,3.667218 -0.04632,5.648351 -0.07049,1.205483 -0.18066,2.414228 -0.33111,3.623556 -1.914874,0.296167 -3.810452,0.692749 -5.680336,1.188193 -0.522303,-1.868343 -1.136926,-3.695641 -1.835116,-5.474846 0.934846,-0.710901 1.872802,-1.375241 2.80843,-1.996163 1.726332,-1.145668 3.432825,-2.134326 5.084453,-2.989091 z m -29.064475,0.07616 c 1.577704,0.825171 3.211072,1.773368 4.86886,2.864259 1.008735,0.663788 2.00047,1.363132 2.972555,2.09809 -0.70095,1.806413 -1.305793,3.646695 -1.811669,5.513784 -1.879183,-0.481844 -3.768103,-0.863156 -5.658034,-1.148109 -0.148235,-1.165051 -0.254899,-2.309844 -0.324819,-3.430582 -0.129011,-2.067881 -0.132463,-4.039708 -0.04689,-5.897442 z m 19.584666,6.164284 c 0.588456,1.547746 1.111492,3.131362 1.562908,4.747042 -1.043445,0.316196 -2.078126,0.663732 -3.102369,1.042174 -0.706871,-0.832528 -1.434757,-1.640049 -2.181665,-2.422767 1.185835,-1.179535 2.427425,-2.302789 3.721126,-3.366449 z m -10.15175,0.0481 c 1.28349,1.04616 2.528068,2.156289 3.726845,3.329801 -0.745552,0.795557 -1.467854,1.613827 -2.165653,2.453689 C 80.714421,70.77335 79.6804,70.437487 78.6422,70.133088 c 0.437196,-1.614426 0.950912,-3.207666 1.539461,-4.775674 z m 30.297419,4.321584 c -0.82517,1.577704 -1.77358,3.21065 -2.86448,4.868438 -0.66378,1.008735 -1.36321,2.0004 -2.09817,2.972485 -1.80641,-0.70095 -3.64626,-1.30533 -5.51335,-1.811206 0.48184,-1.879184 0.86335,-3.768153 1.1483,-5.658085 1.16505,-0.148235 2.30931,-0.254757 3.43005,-0.324677 2.06788,-0.129011 4.03992,-0.132516 5.89765,-0.04696 z m -50.34015,0.132276 c 1.778918,-0.07423 3.66718,-0.06946 5.648312,0.04638 1.205484,0.07049 2.41401,0.179954 3.623338,0.330403 0.296167,1.914875 0.692893,3.811106 1.188336,5.68099 -1.868343,0.522303 -3.69526,1.136494 -5.474465,1.834684 C 64.41355,76.768886 63.748991,75.831218 63.128069,74.89559 61.982403,73.169258 60.993694,71.4629 60.13893,69.811273 Z m 25.127184,0.253099 c 0.551174,0.579209 1.091453,1.172413 1.620094,1.779711 -0.540698,0.223059 -1.077872,0.45508 -1.612088,0.695737 -0.536326,-0.233943 -1.074627,-0.458802 -1.614947,-0.67455 0.522337,-0.612789 1.057768,-1.213195 1.606941,-1.800898 z m 13.883171,0.27944 c -0.264256,1.634614 -0.603305,3.267561 -1.020208,4.892488 -1.061748,-0.247889 -2.13135,-0.4644 -3.207591,-0.648781 -0.195905,-1.074425 -0.422178,-2.137628 -0.677661,-3.188936 1.616732,-0.428589 3.253251,-0.780465 4.90546,-1.054771 z m -27.735461,0.13113 c 1.634615,0.264256 3.267379,0.603512 4.892306,1.020414 -0.247889,1.061749 -0.464113,2.131018 -0.648495,3.20726 -1.074424,0.195905 -2.137984,0.422503 -3.189292,0.677985 -0.428589,-1.616731 -0.780213,-3.25345 -1.054519,-4.905659 z m 20.969724,1.453317 c 0.187726,0.777195 0.358795,1.560934 0.512963,2.351189 -0.579788,-0.07717 -1.161216,-0.145161 -1.744189,-0.203854 -0.3475,-0.470763 -0.701324,-0.93447 -1.061382,-1.391473 0.758752,-0.269523 1.523159,-0.521482 2.292608,-0.755862 z M 78.170983,72.009 c 0.766935,0.226022 1.531142,0.469624 2.292607,0.731239 -0.356729,0.463524 -0.705912,0.933128 -1.048229,1.408652 -0.581442,0.06556 -1.160378,0.140005 -1.736182,0.223323 0.145962,-0.791861 0.310058,-1.579662 0.491804,-2.363214 z m 7.164899,3.728919 a 8.6635801,8.6750567 0 0 1 8.663185,8.675234 8.6635801,8.6750567 0 0 1 -8.663185,8.674662 8.6635801,8.6750567 0 0 1 -8.663758,-8.674662 8.6635801,8.6750567 0 0 1 8.663758,-8.675234 z m 9.916142,0.871532 c 0.791859,0.145962 1.579394,0.309564 2.362947,0.49131 -0.226023,0.766935 -0.469229,1.531888 -0.730844,2.293354 -0.463523,-0.356729 -0.933553,-0.706729 -1.409076,-1.049045 -0.06556,-0.581443 -0.13971,-1.159815 -0.223027,-1.735619 z M 75.3494,76.72741 c -0.07717,0.579789 -0.144891,1.161235 -0.203584,1.744209 -0.470763,0.347499 -0.934917,0.701585 -1.39192,1.061642 -0.269522,-0.758752 -0.521054,-1.523332 -0.755434,-2.292781 0.777196,-0.187726 1.560683,-0.358903 2.350938,-0.51307 z m 24.141288,0.844618 c 1.614422,0.437196 3.208212,0.951235 4.776222,1.539783 -1.04616,1.283491 -2.15646,2.527851 -3.32997,3.726629 -0.79556,-0.745553 -1.614017,-1.46786 -2.453878,-2.16566 0.367554,-1.028432 0.703226,-2.062551 1.007626,-3.100752 z m -28.36394,0.155754 c 0.316195,1.043445 0.663496,2.078227 1.041938,3.10247 -0.832527,0.706871 -1.640274,1.434211 -2.422993,2.18112 -1.179535,-1.185836 -2.30291,-2.427201 -3.36657,-3.720903 1.547746,-0.588455 3.131945,-1.111271 4.747625,-1.562687 z m 35.020452,2.130729 c 1.08308,0.45415 2.12713,0.934031 3.13268,1.433847 1.85534,0.922215 3.56528,1.905382 5.13134,2.908351 -1.50347,0.953747 -3.14155,1.89385 -4.91518,2.784092 -1.07922,0.541696 -2.18056,1.051095 -3.30309,1.525467 -1.21393,-1.510247 -2.50523,-2.953946 -3.86924,-4.325592 1.35688,-1.3865 2.63175,-2.831911 3.82349,-4.326165 z m -41.646082,0.18553 c 1.213925,1.510247 2.505231,2.953946 3.869239,4.325592 -1.35688,1.386499 -2.631748,2.831912 -3.82349,4.326164 -1.083082,-0.454149 -2.127702,-0.934031 -3.133249,-1.433847 -1.855343,-0.922214 -3.564713,-1.905954 -5.130775,-2.908923 1.503472,-0.953747 3.141548,-1.893278 4.915181,-2.783519 1.079224,-0.541696 2.18056,-1.051096 3.303094,-1.525467 z m 33.257391,2.544735 c 0.612789,0.522337 1.213672,1.058752 1.801375,1.607925 -0.579209,0.551173 -1.172919,1.091308 -1.780216,1.619949 -0.223059,-0.540698 -0.454731,-1.078289 -0.695388,-1.612505 0.233943,-0.536326 0.458481,-1.075048 0.674229,-1.615369 z m -24.844111,0.148882 c 0.223059,0.540699 0.454731,1.078289 0.695388,1.612506 -0.233942,0.536325 -0.458482,1.074476 -0.674229,1.614796 -0.612789,-0.522338 -1.213672,-1.05818 -1.801375,-1.607352 0.579209,-0.551174 1.172918,-1.091309 1.780216,-1.61995 z m 28.033972,2.804706 c 1.17954,1.185836 2.30291,2.427773 3.36657,3.721475 -1.54774,0.588456 -3.13194,1.110699 -4.747622,1.562115 -0.316195,-1.043446 -0.663496,-2.077654 -1.041938,-3.101897 0.832528,-0.706872 1.64027,-1.434784 2.42299,-2.181693 z m -31.191239,0.173505 c 0.795556,0.745552 1.614011,1.467287 2.453873,2.165086 -0.367554,1.028432 -0.703227,2.062552 -1.007626,3.100752 -1.614426,-0.437196 -3.20821,-0.950661 -4.776218,-1.53921 1.046159,-1.28349 2.156459,-2.527851 3.329971,-3.726628 z m 27.183039,3.305178 c 0.269522,0.758752 0.521054,1.523332 0.755434,2.292782 -0.777196,0.187725 -1.560683,0.358902 -2.350938,0.51307 0.07717,-0.579788 0.144891,-1.161236 0.203584,-1.744209 0.470763,-0.3475 0.934917,-0.701585 1.39192,-1.061643 z m -23.130231,0.139147 c 0.463525,0.356731 0.933552,0.706156 1.409076,1.048473 0.06556,0.581441 0.13971,1.160388 0.223027,1.736192 -0.79186,-0.145963 -1.579394,-0.310137 -2.362947,-0.491883 0.226023,-0.766935 0.469229,-1.531316 0.730844,-2.292782 z m 31.759681,1.690383 c 0.71089,0.934846 1.37545,1.872514 1.99638,2.808142 1.14566,1.726332 2.13437,3.432689 2.98914,5.084317 -1.77892,0.07423 -3.66719,0.06946 -5.64832,-0.04638 -1.20548,-0.07049 -2.414,-0.180526 -3.62333,-0.330976 -0.29617,-1.914874 -0.6929,-3.810533 -1.18834,-5.680417 1.86834,-0.522303 3.69526,-1.136493 5.47447,-1.834683 z m -40.391986,0.183239 c 1.806414,0.70095 3.646263,1.305903 5.513352,1.811778 -0.481843,1.879184 -0.863353,3.768154 -1.148305,5.658085 -1.165051,0.148236 -2.309309,0.254757 -3.430047,0.324678 -1.943409,0.121244 -3.911093,0.138443 -5.897646,0.04695 0.825187,-1.577744 1.773553,-3.210605 2.864473,-4.868439 0.663788,-1.008734 1.363216,-2.000972 2.098173,-2.973057 z m 33.048089,2.139891 c 0.428589,1.616731 0.780213,3.25345 1.054519,4.905659 -1.634615,-0.264256 -3.267379,-0.603512 -4.892307,-1.020414 0.24789,-1.061748 0.464114,-2.131018 0.648496,-3.20726 1.074424,-0.195904 2.137984,-0.422503 3.189292,-0.677985 z m -25.660734,0.144301 c 1.061748,0.247889 2.131349,0.463828 3.207591,0.648209 0.195905,1.074425 0.422178,2.138201 0.67766,3.189509 -1.616731,0.428589 -3.253249,0.780465 -4.905459,1.054771 0.264256,-1.634615 0.603305,-3.267561 1.020208,-4.892489 z m 20.449898,0.864088 c -0.145963,0.79186 -0.310058,1.579661 -0.491804,2.363214 -0.766934,-0.226023 -1.531142,-0.469625 -2.292607,-0.731239 0.35673,-0.463525 0.705912,-0.933128 1.048228,-1.408652 0.581442,-0.06556 1.16038,-0.140006 1.736183,-0.223323 z m -15.217332,0.09219 c 0.579788,0.07717 1.161215,0.145161 1.744189,0.203854 0.347499,0.470763 0.701324,0.935043 1.061381,1.392046 -0.758751,0.269522 -1.523158,0.521482 -2.292607,0.755862 -0.187726,-0.777196 -0.358796,-1.561507 -0.512963,-2.351762 z m 7.622391,1.740201 c 0.536325,0.233942 1.074627,0.458802 1.614947,0.674549 -0.522337,0.61279 -1.05834,1.213195 -1.607513,1.800899 -0.551173,-0.579209 -1.091454,-1.172988 -1.620094,-1.780285 0.540699,-0.223058 1.078443,-0.454506 1.61266,-0.695163 z m 3.531267,1.398917 c 1.028431,0.367554 2.062453,0.703416 3.100653,1.007816 -0.437196,1.61443 -0.950912,3.20767 -1.539461,4.77568 -1.283489,-1.04616 -2.528068,-2.15629 -3.726845,-3.329808 0.745552,-0.795556 1.467854,-1.613826 2.165653,-2.453688 z m -7.051097,0.0418 c 0.706871,0.832528 1.434757,1.640621 2.181665,2.42334 -1.185835,1.179536 -2.427425,2.302796 -3.721126,3.366456 -0.588456,-1.54775 -1.111492,-3.13194 -1.562908,-4.747622 1.043445,-0.316196 2.078126,-0.663732 3.102369,-1.042174 z m 12.014887,1.47794 c 1.879183,0.481843 3.768675,0.863147 5.658606,1.148116 0.148235,1.16505 0.254899,2.30927 0.324819,3.43001 0.121242,1.94341 0.138372,3.91146 0.04689,5.89801 -1.577744,-0.82519 -3.211027,-1.77334 -4.86886,-2.86426 -1.008734,-0.66379 -2.000471,-1.3637 -2.972555,-2.09866 0.700949,-1.80642 1.305221,-3.64612 1.811097,-5.513216 z m -16.97639,0.09219 c 0.522303,1.868346 1.136926,3.695076 1.835116,5.474276 -0.934847,0.71089 -1.872803,1.37582 -2.80843,1.99674 -1.726332,1.14566 -3.432826,2.13432 -5.084453,2.98909 -0.07423,-1.77892 -0.06952,-3.66722 0.04632,-5.64835 0.07049,-1.20549 0.18066,-2.41423 0.33111,-3.62356 1.914875,-0.296171 3.810451,-0.692752 5.680336,-1.188196 z m 8.500776,2.228076 c 1.386499,1.35688 2.831907,2.63223 4.32616,3.82398 -0.454149,1.08308 -0.93385,2.12728 -1.433666,3.13282 -0.913451,1.83771 -1.920588,3.36265 -2.913653,4.91654 -0.943163,-1.49013 -1.898626,-2.94617 -2.779265,-4.70066 -0.541695,-1.07923 -1.050793,-2.18094 -1.525164,-3.30346 1.510247,-1.21394 2.953943,-2.50522 4.325588,-3.86922 z"
       transform="matrix(0.90364713,0,0,0.90245165,3.9016855,7.1809813)"
       inkscape:export-filename="full2.png"
       inkscape:export-xdpi="156.45396"
       inkscape:export-ydpi="156.45396" /><circle
       style="display:inline;fill:#ffc2c2;fill-opacity:1;stroke:#d36464;stroke-width:1.669;stroke-dasharray:none;stroke-opacity:1;paint-order:stroke fill markers"
       id="path7-1"
       cx="81.029144"
       cy="83.365448"
       r="3.721643"
       inkscape:export-filename="full2.png"
       inkscape:export-xdpi="156.45396"
       inkscape:export-ydpi="156.45396" /></g></svg>
